<svg xmlns="http://www.w3.org/2000/svg" width="800" height="600" viewBox="0 0 800 600">
  <defs>
    <linearGradient id="grad1" x1="0%" y1="0%" x2="100%" y2="100%">
      <stop offset="0%" style="stop-color:#4a6cf7;stop-opacity:0.2"/>
      <stop offset="100%" style="stop-color:#4a6cf7;stop-opacity:0.1"/>
    </linearGradient>
  </defs>
  <rect width="100%" height="100%" fill="url(#grad1)"/>
  <g transform="translate(250,200)">
    <path d="M150,0 A150,150 0 1,1 -150,0 A150,150 0 1,1 150,0" fill="none" stroke="#4a6cf7" stroke-width="2"/>
    <circle cx="0" cy="0" r="120" fill="none" stroke="#4a6cf7" stroke-width="2" stroke-dasharray="5,5"/>
    <g transform="translate(-60,-60)">
      <rect width="120" height="120" rx="10" fill="#4a6cf7" opacity="0.1"/>
      <text x="60" y="70" font-family="Arial" font-size="48" fill="#4a6cf7" text-anchor="middle">AI</text>
    </g>
    <g transform="translate(40,40)">
      <path d="M0,0 L40,0 L40,40 L0,40 Z" fill="#4a6cf7" opacity="0.2"/>
      <path d="M10,20 L30,20 M20,10 L20,30" stroke="#4a6cf7" stroke-width="2"/>
    </g>
    <path d="M-100,-100 L-80,-80 M-60,-100 L-40,-80 M-20,-100 L0,-80" stroke="#4a6cf7" stroke-width="2"/>
  </g>
</svg>