<svg xmlns="http://www.w3.org/2000/svg" viewBox="0 0 800 600"><defs><style>.cls-1{fill:#f0f8ff;}.cls-2{fill:#483d8b;}.cls-3{fill:#6a5acd;}.cls-4{fill:#fff;font-family:Arial;font-size:20px;}</style></defs><rect class="cls-1" width="800" height="600"/><g transform="translate(100,100)"><path class="cls-2" d="M0,300 C100,200 200,350 300,150 C400,50 500,250 600,100" fill="none" stroke="#483d8b" stroke-width="3"/><path class="cls-3" d="M0,250 C100,150 200,300 300,100 C400,0 500,200 600,50" fill="none" stroke="#6a5acd" stroke-width="3"/></g><g transform="translate(100,400)"><rect class="cls-2" x="0" y="0" width="40" height="100"/><rect class="cls-2" x="50" y="30" width="40" height="70"/><rect class="cls-2" x="100" y="10" width="40" height="90"/><rect class="cls-2" x="150" y="50" width="40" height="50"/></g><text class="cls-4" x="300" y="450">机器学习选股模型</text><text class="cls-4" x="300" y="480">智能因子挖掘</text><g transform="translate(500,200)"><circle class="cls-3" cx="0" cy="0" r="30"/><circle class="cls-3" cx="60" cy="30" r="25"/><circle class="cls-3" cx="30" cy="60" r="20"/></g></svg>